<svg width="51" height="51" viewBox="0 0 51 51" fill="none" xmlns="http://www.w3.org/2000/svg">
<path d="M25.5 48C37.9264 48 48 37.9264 48 25.5C48 13.0736 37.9264 3 25.5 3C13.0736 3 3 13.0736 3 25.5C3 37.9264 13.0736 48 25.5 48Z" fill="white"/>
<path d="M25.4999 45.1362C36.3447 45.1362 45.1362 36.3447 45.1362 25.4999C45.1362 14.655 36.3447 5.86353 25.4999 5.86353C14.655 5.86353 5.86353 14.655 5.86353 25.4999C5.86353 36.3447 14.655 45.1362 25.4999 45.1362Z" fill="#1B53E4"/>
<path d="M25.4999 45.1362C36.3447 45.1362 45.1362 36.3447 45.1362 25.4999C45.1362 14.655 36.3447 5.86353 25.4999 5.86353C14.655 5.86353 5.86353 14.655 5.86353 25.4999C5.86353 36.3447 14.655 45.1362 25.4999 45.1362Z" stroke="white" stroke-width="0.51"/>
<path fill-rule="evenodd" clip-rule="evenodd" d="M11.7019 25.4768C11.7019 33.0829 17.8678 39.2489 25.474 39.2489C33.0801 39.2489 39.246 33.0829 39.246 25.4768C39.246 17.8707 33.0801 11.7047 25.474 11.7047C17.8678 11.7047 11.7019 17.8707 11.7019 25.4768ZM22.8366 21.036C21.8425 21.036 21.0366 21.8419 21.0366 22.836V28.1113C21.0366 29.1054 21.8425 29.9113 22.8366 29.9113H28.1119C29.1061 29.9113 29.9119 29.1054 29.9119 28.1113V22.836C29.9119 21.8419 29.1061 21.036 28.1119 21.036H22.8366Z" fill="white"/>
</svg>
