<?xml version="1.0" encoding="utf-8"?>
<!-- Generator: Adobe Illustrator 26.3.1, SVG Export Plug-In . SVG Version: 6.00 Build 0)  -->
<svg version="1.1" id="Capa_2_00000030485613283372369290000000096618012541815431_"
	 xmlns="http://www.w3.org/2000/svg" xmlns:xlink="http://www.w3.org/1999/xlink" x="0px" y="0px" viewBox="0 0 105.6 41.4"
	 style="enable-background:new 0 0 105.6 41.4;" xml:space="preserve">
<style type="text/css">
	.st0{fill-rule:evenodd;clip-rule:evenodd;fill:#FFFFFF;}
	.st1{fill:#FFFFFF;}
</style>
<g id="Capa_1-2">
	<g transform="matrix(.24177 0 0 .24177 -1.9342 -1.9342)">
		<path class="st0" d="M100.5,168.6c-39.1,0-59.3-8.6-71.5-28.9c-6.8-11.7-9.3-32.6-9.3-46.1s2.4-34.4,9.3-46.1
			c12.2-20.3,32.4-28.9,71.5-28.9s59.4,8.6,71.5,28.9c6.8,11.7,9.3,32.6,9.3,46.1s-2.4,34.4-9.3,46.1
			C159.8,160,139.6,168.6,100.5,168.6L100.5,168.6z M120.1,135.9c-4.4,0-10.8-2-13.9-9l-19.4-47c-4.2-10.6,4-20.5,13.5-20.5
			c4.4,0,10.8,2,13.9,9l19.4,47C137.8,126,129.6,135.9,120.1,135.9L120.1,135.9z M81.1,135.9c-4.4,0-10.8-2-13.9-9l-19.4-47
			c-4.2-10.6,4-20.5,13.5-20.5c4.4,0,10.8,2,13.9,9l19.4,47C98.7,126,90.6,135.9,81.1,135.9L81.1,135.9L81.1,135.9z M144.5,100.4
			c-4.4,0-10.8-2-13.9-9.1l-4.7-11.5c-4.2-10.6,4-20.5,13.4-20.5c4.4,0,10.8,2,13.9,9l4.7,11.5C162.2,90.5,154,100.4,144.5,100.4
			L144.5,100.4L144.5,100.4z"/>
		<path class="st1" d="M210.6,66.8l6.2-23.9l6.2,23.9h7.9l9.9-36h-8l-5.7,22.5c-0.1,0.5-0.2,0.9-0.3,1.4v0.1c0,0,0-0.1-0.1-0.2
			c-0.1-0.5-0.3-0.9-0.3-1.4l-5.8-22.4H213l-5.8,22.5c-0.1,0.5-0.2,1-0.3,1.4c0,0,0,0.1,0,0.1c0,0,0-0.1,0-0.1
			c-0.1-0.5-0.3-0.9-0.3-1.4l-5.6-22.5h-8l9.9,36L210.6,66.8L210.6,66.8z"/>
		<path class="st1" d="M244.4,66.8l3.5-9.1h12.8l3.5,9.1h8.1L258,31.1l-0.1-0.3h-6.9l-14.5,35.9C236.4,66.8,244.4,66.8,244.4,66.8z
			 M253.5,43l0.9-2.4l0.5,1.3l3.3,8.8h-7.6L253.5,43L253.5,43z"/>
		<path class="st1" d="M303,41.2c0-6.4-5-10.4-12.9-10.4h-15.4v36h7.6V52.6h4.8l8.1,14.2h8.7l-8.6-15C300.4,49.7,303,46.2,303,41.2
			L303,41.2L303,41.2z M295.4,41.7c0,2.7-1.8,4.1-5.3,4.1h-7.9v-8.2h7.9C293.6,37.6,295.4,39,295.4,41.7
			C295.4,41.7,295.4,41.7,295.4,41.7z"/>
		<path class="st1" d="M315.3,43.2l0.1,0.2c0.1,0.3,0.3,0.6,0.5,0.8l14.6,22.4l0.1,0.2h7.5v-36h-7.4v23.4l-0.1-0.2
			c-0.1-0.3-0.3-0.6-0.5-0.8l-14.7-22.5h-7.5v36h7.4L315.3,43.2L315.3,43.2z"/>
		<polygon class="st1" points="367.6,51.6 367.6,44.7 351.4,44.7 351.4,37.7 369,37.7 369,30.8 343.9,30.8 343.9,66.8 369.1,66.8 
			369.1,59.9 351.4,59.9 351.4,51.6 		"/>
		<path class="st1" d="M394.3,51.8c5.1-2.1,7.8-5.6,7.8-10.5c0-6.4-5-10.4-12.9-10.4h-15.4v35.9h7.6V52.6h4.8l8.1,14.2h8.7
			L394.3,51.8L394.3,51.8z M394.5,41.7c0,2.7-1.8,4.1-5.3,4.1h-7.8v-8.2h7.9C392.7,37.6,394.5,39,394.5,41.7L394.5,41.7z"/>
		<polygon class="st1" points="218,102.2 207.1,75.2 199.4,75.2 199.4,111.2 206.7,111.2 206.7,92.5 207.5,94.8 214.5,111.2 
			221.4,111.2 228.4,94.8 229.2,92.5 229.2,111.2 236.5,111.2 236.5,75.2 228.8,75.2 		"/>
		<path class="st1" d="M242,75.2v22.2c0,8.8,5.8,14.4,14.8,14.4c9,0,14.8-5.7,14.8-14.4V75.2H264v21.6c0,5.1-2.6,8-7.2,8
			c-4.6,0-7.2-2.9-7.2-8V75.2C249.5,75.2,242,75.2,242,75.2z"/>
		<path class="st1" d="M290.2,105.1c-4.7,0-7.4-2.5-8.4-7.9l-0.1-0.7l-6.7,3.5l0.1,0.4c1.5,7.3,7.1,11.6,15.2,11.6
			c8.9,0,13.5-5.7,13.5-11.2c0-6-3.6-9.5-11.8-11.2c-5.8-1.2-8-2.6-8-5s2.9-3.1,5.4-3.1c3.8,0,6.5,2,7.8,5.9l0.2,0.6l6.1-3.5
			l-0.1-0.4c-2.2-6.2-6.9-9.3-13.8-9.3c-7.6,0-12.8,4.1-12.8,10.1c0,5.6,4.1,9.6,11.3,11c6,1.2,8.2,2.7,8.2,5.3
			C296.2,103.4,293.8,105.1,290.2,105.1L290.2,105.1L290.2,105.1z"/>
		<rect x="308" y="75.2" class="st1" width="7.6" height="35.9"/>
		<path class="st1" d="M353.5,102.3l0.3-0.4l-6-4.3l-0.3,0.5c-2.4,4.5-5.8,6.8-10.1,6.8c-6.2,0-10.8-4.9-10.8-11.6
			s4.5-11.6,10.8-11.6c4.5,0,7.6,2.1,9.7,6.6l0.3,0.5l6.1-4.4l-0.2-0.4c-2.7-5.9-8.6-9.4-15.8-9.4c-10.8,0-18.6,7.9-18.6,18.7
			s7.6,18.7,18.4,18.7C345.5,111.9,349.4,108.4,353.5,102.3L353.5,102.3L353.5,102.3z"/>
		<path class="st1" d="M211.9,142.3h11.2c-0.5,2.4-2.4,6.9-9,6.9c-6.1,0-10.4-4.8-10.4-11.6s4.6-11.9,10.9-11.9c4.5,0,8,2.1,10,6.1
			l0.3,0.5l5.8-4.2l-0.2-0.4c-2.8-5.5-8.7-8.8-15.7-8.8c-10.6,0-18.6,8-18.6,18.7s7.7,18.7,17.8,18.7c4.4,0,8.1-1.7,10.5-4.9
			l1.2,4.2h5.2v-19.7h-18.9L211.9,142.3L211.9,142.3z"/>
		<path class="st1" d="M264.1,130c0-6.4-5-10.4-12.9-10.4h-15.4v36h7.6v-14.2h4.8l8.1,14.2h8.7l-8.6-15
			C261.5,138.5,264.1,135,264.1,130L264.1,130z M256.5,130.5c0,2.7-1.8,4.1-5.4,4.1h-7.8v-8.2h7.9
			C254.7,126.4,256.5,127.8,256.5,130.5L256.5,130.5z"/>
		<path class="st1" d="M285,118.9c-10.5,0-18.5,8-18.5,18.7s7.9,18.7,18.5,18.7c10.5,0,18.5-8,18.5-18.7S295.6,118.9,285,118.9z
			 M295.8,137.6c0,6.9-4.4,11.6-10.8,11.6s-10.8-4.7-10.8-11.6c0-6.9,4.4-11.6,10.8-11.6S295.8,130.7,295.8,137.6
			C295.8,137.6,295.8,137.6,295.8,137.6z"/>
		<path class="st1" d="M329.6,141.2c0,5.1-2.6,8-7.2,8s-7.2-2.9-7.2-8v-21.6h-7.6v22.2c0,8.8,5.8,14.4,14.8,14.4s14.8-5.7,14.8-14.4
			v-22.2h-7.6V141.2z"/>
		<path class="st1" d="M358.9,119.6h-16.4v36h7.6v-12.2h8.8c8.4,0,13.6-4.6,13.6-11.9S367.3,119.6,358.9,119.6L358.9,119.6z
			 M365,131.5c0,3.3-2.1,5-6.2,5h-8.6v-10h8.6C362.8,126.5,364.9,128.2,365,131.5L365,131.5z"/>
	</g>
</g>
</svg>
