<?xml version="1.0" encoding="UTF-8"?><svg id="Capa_2" xmlns="http://www.w3.org/2000/svg" viewBox="0 0 1000 124.25"><defs><style>.cls-1,.cls-2{fill:#fff;}.cls-2{fill-rule:evenodd;}</style></defs><g id="Layer_1"><g><g><polygon class="cls-1" points="775.56 3.8 775.56 27.48 811.04 27.48 811.04 120.48 836.72 120.48 836.72 27.48 872.2 27.48 872.2 3.8 775.56 3.8"/><polygon class="cls-1" points="379.35 3.8 379.35 75.65 324.69 3.8 301.04 3.8 301.04 120.48 326.36 120.48 326.36 46.31 382.85 120.48 404.68 120.48 404.68 3.8 379.35 3.8"/><g><path class="cls-1" d="M599.08,78.96h33.78c-1.57,8.86-10.28,21.91-32.02,21.91s-38.48-16.95-38.48-38.61,16.69-38.74,38.88-38.74,32.68,17.67,33.12,18.42l19.9-12.33C642.59,10.82,623.27,.01,601.25,.01c-34.86,0-63.23,27.8-63.23,61.99s27.4,62.25,62.39,62.25c32.45,0,57.86-23.31,57.86-54.82v-13.56h-59.19v23.09h0Z"/><path class="cls-1" d="M490.1,53.53c-16.82-6.31-33.43-8.47-33.43-19.71,0-6.53,6.79-11.41,21.15-11.41s29.46,6.29,39.92,11.82V9.35c-14.12-5.87-27.62-9.35-41.57-9.35-28.19,0-47.26,14.27-47.26,34.98,0,22.61,19.28,30.6,32.7,35.63,16.81,6.28,32.94,8.59,32.94,19.83,0,6.51-7.75,11.4-22.1,11.41-13.41,0-29.69-6.32-40.14-11.83v24.97c14.62,6.25,27.97,9.25,41.76,9.25,28.48,.02,48.21-14.27,48.21-34.98,0-22.61-18.75-30.69-32.18-35.74"/><path class="cls-1" d="M216.01,0c-33.93,0-61.52,27.58-61.52,61.52s27.28,62.6,60.81,62.6,62.48-27.43,62.48-62.47S250.06,0,216.01,0m-.29,99.82c-20.54,0-36.66-16.59-36.66-37.77s16.34-37.61,37.2-37.61,36.79,16.42,36.79,37.33-16.03,38.04-37.33,38.04"/><polygon class="cls-1" points="25.66 3.81 0 3.81 0 120.46 83.63 120.46 83.63 97.14 25.66 97.14 25.66 3.81"/><path class="cls-1" d="M971.37,97.63h-54.51v-24.5h49.95c-.34-4.09-.57-8.24-.57-12.43,0-3.52,.16-6.98,.45-10.4h-49.83V26.64h53.91c2.15-7.92,5.05-15.58,8.56-22.83v-.02h-87.96V120.48h88.77c-3.58-7.25-6.53-14.89-8.77-22.84"/><rect class="cls-1" x="104.65" y="3.81" width="25.66" height="116.66"/><path class="cls-1" d="M713.09,3.8l-49.64,116.66h26.17l9.28-22.96h52.07l9.28,22.96h26.85L737.45,3.83l-24.36-.03Zm-5.48,72.17l17.32-42.16,17.44,42.16h-34.76Z"/></g></g><path class="cls-2" d="M991.8,7.34c1.11,0,1.91,.12,2.41,.35,.91,.39,1.36,1.08,1.37,2.22,0,.79-.27,1.35-.87,1.72-.3,.19-.73,.36-1.27,.42,.67,.12,1.17,.41,1.5,.89,.33,.47,.49,.9,.49,1.35v1.32c.03,.22,.04,.37,.12,.45l.05,.1h-1.47s0-.02-.02-.07t-.03-.11l-.02-.28v-.71c0-1-.29-1.68-.84-2.02-.32-.19-.91-.25-1.72-.29h-1.24v3.48h-1.53V7.34h3.07m1.66,1.4c-.36-.2-.99-.34-1.85-.34h-1.33v3.22h1.43c.63,0,1.12-.08,1.45-.21,.61-.23,.92-.69,.93-1.39,0-.59-.2-1.04-.61-1.28m4.2,8.73c-1.59,1.6-3.47,2.38-5.71,2.38s-4.1-.78-5.67-2.38c-1.55-1.54-2.31-3.44-2.31-5.7s.77-4.06,2.32-5.64c1.56-1.57,3.44-2.32,5.66-2.34,2.22,0,4.12,.75,5.71,2.34,1.54,1.56,2.33,3.43,2.34,5.64,0,2.24-.77,4.1-2.34,5.7m-10.57-10.55c-1.34,1.31-2,2.97-2,4.85s.66,3.57,2,4.93c1.31,1.38,2.96,2.04,4.86,2.04s3.55-.65,4.91-2.04c1.34-1.35,1.98-3,1.98-4.93s-.64-3.5-1.98-4.85c-1.36-1.41-2.98-2.05-4.91-2.05-1.89,0-3.5,.63-4.86,2.04"/></g></g></svg>