<?xml version="1.0" encoding="UTF-8"?><svg id="Capa_2" xmlns="http://www.w3.org/2000/svg" viewBox="0 0 365.86 150"><defs><style>.cls-1{fill:#fff;}</style></defs><g id="Capa_1-2"><g><g><path class="cls-1" d="M111.84,113.04c2.77,.81,5.31,2.07,7.81,4.53,0-3.82,.07-7.04-.03-10.25-.05-1.49,.47-1.92,1.9-1.85,1.24,.06,2.05,.07,2.03,1.74-.09,6.87,.05,13.75-.07,20.62-.12,6.99-4.26,11.91-11.73,14.31-.44,.08-.89,.16-1.33,.24-6.83,.23-12.17-2.35-15.1-8.68-4.6-9.91,2.79-20.99,13.77-20.89,.44,0,.88,0,1.32-.01,.44,.33,.94,.27,1.44,.24Zm-.67,4.05l-.81-.26c-4.66-.65-8.32,1.04-10.83,4.93-2.42,3.75-2.37,7.7-.12,11.54,2.43,4.13,7.75,6.24,11.56,4.67,.36,0,.73,.1,1.06,.01,4.56-1.26,7.84-6,7.61-10.94-.23-4.87-3.75-9-8.48-9.95Z"/><path class="cls-1" d="M254.05,142.23c-4.98,.55-9.41-.63-13.03-4.22-4.32-4.29-5.5-11.14-2.93-16.64,2.66-5.69,8.52-9.04,14.8-8.46,.37,.03,.74,.03,1.1,.05,.46,.09,.92,.18,1.38,.28,5.22,1.83,8.92,5.19,10.39,10.63,1.94,7.16-1.87,14.59-8.79,17.39-.54,.22-1.07,.47-1.6,.71-.44,.09-.88,.18-1.32,.27Zm1.1-24.71c-4.08-1.9-9.22-.51-12.24,3.3-3.08,3.88-3.13,9.46-.13,13.34,3.06,3.96,8.14,5.4,12.39,3.5,2.15-.27,3.58-1.69,4.84-3.23,5.41-6.65,.99-15.83-4.85-16.92Z"/><path class="cls-1" d="M306.85,130.9c0,2.89-.07,5.78,.03,8.66,.05,1.48-.28,2.02-1.91,2.05-1.8,.04-1.81-.83-1.8-2.15,.05-5.26,.02-10.51,.02-15.77,0-4.45-2.5-7.29-6.48-7.4-4.32-.11-7.13,2.6-7.21,7.19-.09,5.25-.03,10.51-.02,15.77,0,1.27,.24,2.37-1.81,2.37-1.94,0-1.91-.89-1.9-2.26,.04-5.26,.02-10.51,.01-15.77,0-4.38-2.57-7.23-6.57-7.3-4.24-.08-7.02,2.6-7.09,7.06-.09,5.4-.08,10.81,0,16.21,.02,1.51-.34,2.01-1.94,2.04-1.7,.03-1.91-.67-1.89-2.09,.07-5.4-.05-10.81,.06-16.21,.2-9.38,8.77-12.59,15.53-9.72,1.55,.66,2.55,2.68,3.85,2.71,1.3,.03,2.26-2.06,3.81-2.72,6.92-2.94,15.55,.67,15.3,9.54-.07,2.59-.01,5.18-.01,7.77Z"/><path class="cls-1" d="M336.81,134.28c-3.86,9.25-17.31,10.8-23.99,2.93-4.18-4.92-4.7-12.25-1.24-17.56,3.62-5.56,10.31-8.04,16.67-6.17,6.05,1.78,10.39,7.59,10.55,13.89,.04,1.64-.37,2.16-2.07,2.13-7.17-.1-14.35,0-21.53-.07-1.92-.02-2.06,.57-1.42,2.17,2.85,7.14,11.99,9.34,17.59,3.99,1.76-1.68,3.45-1.42,5.44-1.31Zm-12.68-8.62c3.02,0,6.05-.04,9.07,.02,1.37,.03,1.62-.35,1.16-1.66-1.47-4.26-5.66-7.34-10.28-7.37-4.63-.04-8.89,2.93-10.44,7.17-.54,1.5-.16,1.93,1.4,1.88,3.02-.1,6.05-.03,9.07-.03Z"/><path class="cls-1" d="M365.82,132.21c0,2.52-.1,5.04,.04,7.54,.09,1.69-.81,1.69-2.04,1.72-1.27,.03-1.86-.25-1.84-1.7,.08-4.66,.05-9.32,.03-13.98-.02-5-3.35-8.27-8.4-8.3-5.06-.03-8.54,3.18-8.63,8.11-.08,4.66-.08,9.32,.01,13.98,.03,1.55-.41,2.02-1.98,2.01-1.45-.01-1.93-.41-1.89-1.87,.17-5.25-.31-10.51,.25-15.74,.67-6.32,6.38-10.74,13.06-10.3,6.48,.42,11.3,5.35,11.38,11.64,.03,2.29,0,4.59,0,6.88Z"/><path class="cls-1" d="M.05,123.7c0-2.96,.1-5.93-.04-8.88-.08-1.62,.54-2.02,1.99-1.99,3.53,.06,7,.28,9.68,2.98,.72,.72,1.09,.53,1.79-.03,3.59-2.87,7.06-2.88,10.68-.08,.65,.5,1,.84,1.79,.09,2.98-2.86,6.74-3.03,10.58-2.9,.92,.03,1.1,.44,1.09,1.23-.03,6.36,.22,12.74-.12,19.09-.4,7.54-10.08,11.72-16.87,7.4-1.38-.88-2.17-.9-3.58-.02-3.81,2.4-7.87,2.44-11.8,.23-3.67-2.07-5.4-5.3-5.21-9.57,.11-2.51,.02-5.03,.02-7.55Zm34.19,1.34c0-2.44,0-4.88,0-7.32,0-.73,.13-1.58-1.08-1.42-3.73,.49-6.14,1.84-6.27,5.8-.08,2.29,.02,4.59-.05,6.88-.02,.66,.5,1.68-.45,1.92-.9,.23-1.64-.48-2.21-1.21-.48-.62-.59-1.33-.59-2.09,0-1.63,.02-3.25,0-4.88-.04-3.38-1.87-5.56-4.69-5.61-2.91-.05-4.83,2.14-4.89,5.64-.03,1.7-.02,3.4,0,5.1,.01,1.24-.58,2.13-1.59,2.74-1.06,.64-1.79,.62-1.75-.96,.06-2.29,.03-4.59,.01-6.88-.03-3.85-1.4-5.45-5.16-6.3-1.57-.36-2.26-.15-2.2,1.72,.13,4.36,.02,8.73,.05,13.09,.02,3.66,1.66,6.08,4.82,7.18,3.32,1.16,6.99,.31,8.96-2.51,1.36-1.95,2-1.85,3.31,.02,1.97,2.79,5.69,3.67,8.97,2.49,3.15-1.13,4.78-3.56,4.8-7.19,0-2.07,0-4.14,0-6.21Z"/><path class="cls-1" d="M69.17,127.68c-.02,8.17-6.52,14.66-14.68,14.68-8.2,.01-14.78-6.61-14.75-14.86,.03-8.11,6.61-14.69,14.71-14.71,8.17-.03,14.74,6.62,14.72,14.89Zm-14.73-11.04c-6.08,.03-10.9,4.95-10.84,11.1,.05,6,4.92,10.79,10.94,10.77,5.96-.02,10.88-4.92,10.9-10.86,.02-6.05-4.96-11.03-11-11.01Z"/><path class="cls-1" d="M86.8,123.61c0-5.47,.08-10.94-.05-16.4-.04-1.69,.74-1.69,1.97-1.72,1.31-.03,1.94,.17,1.93,1.76-.08,10.86-.08,21.72,0,32.58,.01,1.62-.68,1.72-1.96,1.74-1.36,.02-1.95-.22-1.92-1.79,.1-5.39,.04-10.79,.04-16.18Z"/><path class="cls-1" d="M71.3,132.03c0-2.59-.07-5.18,.02-7.77,.2-6.08,4.71-10.9,10.44-11.3,.85-.06,1.84-.21,1.56,1.08-.2,.92,1.01,2.36-1.1,2.72-4.78,.81-7.01,3.56-7.06,8.42-.04,4.88-.09,9.77,.03,14.65,.04,1.67-.74,1.7-1.99,1.73-1.34,.03-2.02-.17-1.93-1.77,.14-2.58,.04-5.18,.04-7.77Z"/><path class="cls-1" d="M234.61,123.67c0,2.51-.07,5.03,.02,7.54,.14,4.34-1.63,7.65-5.4,9.7-3.94,2.14-8,2.04-11.8-.39-1.24-.79-1.95-.87-3.24-.03-3.77,2.47-7.83,2.55-11.79,.44-3.81-2.03-5.51-5.35-5.45-9.68,.08-5.47,.08-10.95-.02-16.42-.03-1.57,.49-2.03,1.98-2.02,3.62,.02,7.12,.35,9.88,3.05,.53,.52,.82,.51,1.45,.07,4.38-3.09,6.95-3.14,11.03-.12,.84,.62,1.15,.38,1.78-.18,2.99-2.68,6.65-2.91,10.42-2.76,1.25,.05,1.15,.87,1.15,1.7,0,3.03,0,6.07,0,9.1Zm-34.16,1.36c0,2.07,0,4.14,0,6.21,.01,3.73,1.54,6.05,4.73,7.19,3.29,1.18,7.01,.3,8.96-2.51,1.35-1.95,2.01-1.83,3.33,.03,1.93,2.71,5.35,3.6,8.55,2.59,2.94-.93,4.99-2.85,5.11-6,.2-5.02,.08-10.06,.1-15.09,0-.63-.04-1.09-.91-1.17-3.19-.27-6.21,2.22-6.34,5.46-.1,2.36,.02,4.73-.05,7.1-.02,.71,.51,1.82-.58,2.07-.93,.22-1.63-.55-2.19-1.27-.54-.67-.63-1.48-.63-2.31,0-1.7,.02-3.4-.01-5.1-.05-2.98-2.01-5.11-4.67-5.13-2.68-.02-4.66,2.07-4.74,5.06-.05,1.77,0,3.55-.02,5.33-.01,1.44-.55,2.6-1.91,3.24-.93,.44-1.54,.35-1.51-.93,.05-2.37,.02-4.73,0-7.1-.01-3.9-1.76-5.84-5.62-6.36-1.14-.16-1.62,.12-1.59,1.35,.06,2.44,.02,4.88,.02,7.32Z"/><path class="cls-1" d="M164.74,127.65c-.03,8.27-6.61,14.82-14.81,14.72-8.22-.09-14.71-6.72-14.65-14.94,.06-8.05,6.72-14.67,14.75-14.65,8.19,.02,14.73,6.63,14.7,14.87Zm-25.59-.04c.01,6.01,4.82,10.86,10.81,10.9,6.05,.04,11.04-4.91,11.04-10.94,0-5.91-4.94-10.87-10.86-10.91-6.08-.04-11,4.87-10.99,10.96Z"/><path class="cls-1" d="M174.32,117.26v.22c0,4.05,0,4.09,4,4.07,1.35,0,2.18,.06,2.19,1.83,0,1.75-.79,1.84-2.16,1.83-4.03-.03-4.03,.01-4.03,4.04,0,4.29,.07,8.59-.02,12.88-.1,4.69-3.05,7.77-7.33,7.86-.9,.02-1.93,.16-1.78-1.24,.1-.95-.62-2.17,1.21-2.53,3.29-.66,4.03-1.71,4.05-5.04,.03-4.66-.05-9.33,.04-13.99,.03-1.49-.31-2.23-1.94-2.01-1.21,.16-2.09,.04-2.05-1.67,.03-1.57,.52-2.18,2.04-1.93,1.61,.26,2.03-.48,1.95-1.99-.11-1.99-.12-4,.03-5.99,.32-4.13,3.5-7.17,7.55-7.37,3.88-.19,7.41,2.43,8.17,6.13,.14,.69,.73,1.84-.61,1.9-1.03,.04-2.37,.81-3.1-.77-1.32-2.82-2.87-3.84-4.94-3.35-2.22,.53-3.25,2.21-3.26,5.35,0,.59,0,1.18,0,1.78Z"/></g><g><path class="cls-1" d="M311.36,4.05c.02-2.85-.76-3.87-3.05-3.98-9.79-.46-19.07,.89-26.18,10.51-9.55-11.13-20.55-10.74-29.24-.06-1.99-1.89-3.86-4.01-5.98-5.61C240.73,.26,233.84-.1,226.85,.04c-2.51,.05-3.39,1.13-3.33,4.36,.16,8.59,.06,26.69,.06,26.69l-.28,26.39c.54,3.1,.89,6.4,1.88,9.38,6.38,19.27,26.35,25.4,40.36,12.43,1.37-1.26,2.11-1.47,3.54-.11,6.08,5.78,12.97,7.96,20.56,6.56,13.14-2.42,21.71-14.78,21.69-31.27-.01-16.81-.04-33.61,.03-50.41Z"/><path class="cls-1" d="M137.46,.07c-9.96-.4-19.44,.86-26.76,10.56-10.23-11.14-20.33-11.07-30.16,.04-1.82-1.8-3.4-3.69-5.24-5.12C68.13-.06,60.09-.43,51.95,.4c-.65,.06-1.65,2.11-1.66,3.24-.12,13.98-.14,27.95-.06,41.93,.03,5.47-.18,11.07,.68,16.38,3.55,21.79,26.92,31.83,41.77,18.02,2.16-2,3.42-1.98,5.59-.03,14.07,12.61,34.66,5.55,40.9-13.95,.66-2.08,1.03-4.3,1.41-6.52V2.15c-.38-1.5-1.38-2-3.13-2.08Z"/><path class="cls-1" d="M218.01,21.61c-.2-.36-.41-.73-.62-1.09-.27-.45-.54-.9-.83-1.34C209.51,7.88,199.46,1.24,185.93,.18c-.45-.04-.91-.08-1.37-.11-.45-.03-.9-.04-1.35-.06-.36,0-.72-.01-1.08-.01h-.12c-.36,0-.71,0-1.06,.01-22.26,.66-40.12,19.61-40.12,42.91s18.46,42.88,41.25,42.92h.15c.32,0,.66,0,.98-.01,22.32-.59,40.24-19.57,40.24-42.91,0-7.75-1.98-15.03-5.44-21.31Z"/></g></g></g></svg>