<svg xmlns="http://www.w3.org/2000/svg" width="227.913" height="72.963" viewBox="0 0 227.913 72.963">
  <g id="Ubisoft_logo" transform="translate(124.973 -45)">
    <path id="nombre" d="M-81.152,57.282V73.555c0,6.608,4.5,10.819,11.064,10.819,6.9,0,11.124-4.441,11.124-11.265V57.282H-64.8V72.812c0,3.721-1.874,6.028-5.221,6.028-3.669,0-5.286-2.653-5.286-5.731V57.282Zm25.028.225v26.6h9.3c5.152,0,9.53-2.628,9.53-7.84a6.678,6.678,0,0,0-4.76-6.646s3.525-.979,3.525-5.633-4.455-6.483-8.295-6.483Zm5.884,5.053h2.824c1.96,0,3.214,1.032,3.214,2.828a2.747,2.747,0,0,1-3.065,2.819H-50.24V62.56Zm0,9.809h3.121c2.935,0,3.952,1.507,3.952,3.307,0,2.093-1.316,3.321-3.655,3.321H-50.24V72.369ZM-35.081,57.5h5.87v26.6h-5.87Zm64.054,26.6H23.1V57.5H41.531V63H28.973V69.1H40.417v4.458H28.973ZM43.687,57.5V63h7.579v21.1h5.945V63h7.431V57.5Zm-66.2,17.757-4.664,3.41s1.611,5.894,9.69,5.894c5.38,0,9.339-3.139,9.339-8.659,0-8.9-12.438-7.008-12.438-11.582,0-1.2,1.071-2.267,3.046-2.267,3.17,0,4.375,3.11,4.375,3.11l4.665-3.274s-1.822-4.857-8.806-4.857c-5.739,0-8.788,3.682-8.788,7.481,0,9.065,12.076,7.1,12.076,11.854,0,1.605-1.265,2.785-3.235,2.771-3.9,0-5.261-3.881-5.261-3.881ZM7.015,57.023c-6.913,0-9.994,3.753-9.994,3.753l.892.892a12.49,12.49,0,0,0-4.473,10c0,7.85,6.054,12.893,13.608,12.893,8.776,0,13.756-6.476,13.756-13.756A13.393,13.393,0,0,0,7.015,57.023Zm.125,5.522c4.687,0,7.728,3.583,7.728,8.234,0,4.6-3,8.285-7.728,8.285A7.343,7.343,0,0,1-.592,71.481a6.784,6.784,0,0,1,2.666-5.652l-.966-.966A8.334,8.334,0,0,1,7.141,62.545Z" transform="translate(38.299 10.465)" fill="#fff"/>
    <path id="logo" d="M-91.9,45c-22.651,0-32.428,20.162-32.428,20.162l2.878,2.06a36.338,36.338,0,0,0-3.521,15.721,35.1,35.1,0,0,0,35.486,35.02A35.1,35.1,0,0,0-54.429,82.987C-54.429,57.749-74,45-91.9,45Zm.2,6.152c17.7,0,31.429,14.261,31.429,30.84,0,17.575-13.218,29.8-28.621,29.8-11.336,0-21.563-8.633-21.563-20.469a16.314,16.314,0,0,1,7.705-14.143l.6.647c-1.114.872-4.292,5.976-4.292,10.992,0,9.313,7.3,15.762,16.5,15.762,11.72,0,19.537-10,19.537-21.6,0-13.5-11.921-24.97-26.266-24.97a31.154,31.154,0,0,0-18.539,6.425l-.6-.545A28.269,28.269,0,0,1-91.7,51.152Zm-5.28,12.919c9.155,0,18.092,6.056,20.323,14.653l-.811.307c-4.006-5.29-10.569-9.673-18.32-9.673-14.262,0-21.752,12.96-20.653,23.784l-.84.308a20.545,20.545,0,0,1-1.575-7.6A21.894,21.894,0,0,1-96.983,64.071Zm6.051,14.979a7.773,7.773,0,0,1,7.8,7.683,7.917,7.917,0,0,1-2.216,5.5l2.624,1.835a9.756,9.756,0,0,1-7.914,4.086,9.6,9.6,0,0,1-9.575-9.616,9.565,9.565,0,0,1,9.281-9.483Z" transform="translate(0)" fill="#fff"/>
  </g>
</svg>
