<svg width="51" height="51" viewBox="0 0 51 51" fill="none" xmlns="http://www.w3.org/2000/svg">
<path d="M45.7761 5L28.192 18.0454L31.4577 10.3489L45.7761 5Z" fill="#E17726" stroke="#E17726" stroke-width="0.980123" stroke-linecap="round" stroke-linejoin="round"/>
<path d="M5.22412 5L22.6482 18.1689L19.5425 10.3489L5.22412 5Z" fill="#E27625" stroke="#E27625" stroke-width="0.980123" stroke-linecap="round" stroke-linejoin="round"/>
<path d="M39.4551 35.2417L34.7773 42.4096L44.7866 45.1623L47.6471 35.3999L39.4551 35.2417Z" fill="#E27625" stroke="#E27625" stroke-width="0.980123" stroke-linecap="round" stroke-linejoin="round"/>
<path d="M3.37036 35.3999L6.21351 45.1623L16.2228 42.4096L11.5624 35.2417L3.37036 35.3999Z" fill="#E27625" stroke="#E27625" stroke-width="0.980123" stroke-linecap="round" stroke-linejoin="round"/>
<path d="M15.675 23.1302L12.8857 27.3505L22.8081 27.7922L22.4724 17.11L15.675 23.1302Z" fill="#E27625" stroke="#E27625" stroke-width="0.980123" stroke-linecap="round" stroke-linejoin="round"/>
<path d="M35.3251 23.1301L28.4216 16.9865L28.192 27.7921L38.1143 27.3505L35.3251 23.1301Z" fill="#E27625" stroke="#E27625" stroke-width="0.980123" stroke-linecap="round" stroke-linejoin="round"/>
<path d="M16.2228 42.4095L22.2082 39.4951L17.0523 35.4712L16.2228 42.4095Z" fill="#E27625" stroke="#E27625" stroke-width="0.980123" stroke-linecap="round" stroke-linejoin="round"/>
<path d="M28.7919 39.4951L34.7773 42.4095L33.9478 35.4712L28.7919 39.4951Z" fill="#E27625" stroke="#E27625" stroke-width="0.980123" stroke-linecap="round" stroke-linejoin="round"/>
<path d="M34.7773 42.4096L28.7919 39.4951L29.2683 43.3973L29.2162 45.0388L34.7773 42.4096Z" fill="#D5BFB2" stroke="#D5BFB2" stroke-width="0.980123" stroke-linecap="round" stroke-linejoin="round"/>
<path d="M16.2228 42.4096L21.7839 45.0388L21.7491 43.3973L22.2082 39.4951L16.2228 42.4096Z" fill="#D5BFB2" stroke="#D5BFB2" stroke-width="0.980123" stroke-linecap="round" stroke-linejoin="round"/>
<path d="M21.8899 32.8924L16.9114 31.4282L20.424 29.8214L21.8899 32.8924Z" fill="#233447" stroke="#233447" stroke-width="0.980123" stroke-linecap="round" stroke-linejoin="round"/>
<path d="M29.1099 32.8924L30.5758 29.8214L34.1058 31.4282L29.1099 32.8924Z" fill="#233447" stroke="#233447" stroke-width="0.980123" stroke-linecap="round" stroke-linejoin="round"/>
<path d="M16.2228 42.4096L17.0871 35.2417L11.5625 35.3999L16.2228 42.4096Z" fill="#CC6228" stroke="#CC6228" stroke-width="0.980123" stroke-linecap="round" stroke-linejoin="round"/>
<path d="M33.913 35.2417L34.7772 42.4096L39.4549 35.3999L33.913 35.2417Z" fill="#CC6228" stroke="#CC6228" stroke-width="0.980123" stroke-linecap="round" stroke-linejoin="round"/>
<path d="M38.1143 27.3505L28.192 27.7922L29.1102 32.8924L30.5761 29.8215L34.1061 31.4282L38.1143 27.3505Z" fill="#CC6228" stroke="#CC6228" stroke-width="0.980123" stroke-linecap="round" stroke-linejoin="round"/>
<path d="M16.9114 31.4282L20.424 29.8215L21.8899 32.8924L22.8081 27.7922L12.8857 27.3505L16.9114 31.4282Z" fill="#CC6228" stroke="#CC6228" stroke-width="0.980123" stroke-linecap="round" stroke-linejoin="round"/>
<path d="M12.8857 27.3505L17.0522 35.4713L16.9114 31.4282L12.8857 27.3505Z" fill="#E27525" stroke="#E27525" stroke-width="0.980123" stroke-linecap="round" stroke-linejoin="round"/>
<path d="M34.106 31.4282L33.9478 35.4713L38.1142 27.3505L34.106 31.4282Z" fill="#E27525" stroke="#E27525" stroke-width="0.980123" stroke-linecap="round" stroke-linejoin="round"/>
<path d="M22.8083 27.7921L21.8901 32.8923L23.0552 38.9125L23.3021 30.9865L22.8083 27.7921Z" fill="#E27525" stroke="#E27525" stroke-width="0.980123" stroke-linecap="round" stroke-linejoin="round"/>
<path d="M28.1918 27.7921L27.7153 30.9691L27.9449 38.9125L29.11 32.8923L28.1918 27.7921Z" fill="#E27525" stroke="#E27525" stroke-width="0.980123" stroke-linecap="round" stroke-linejoin="round"/>
<path d="M29.1102 32.8923L27.9451 38.9125L28.7919 39.495L33.9478 35.4712L34.1061 31.4282L29.1102 32.8923Z" fill="#F5841F" stroke="#F5841F" stroke-width="0.980123" stroke-linecap="round" stroke-linejoin="round"/>
<path d="M16.9114 31.4282L17.0522 35.4712L22.2081 39.495L23.055 38.9125L21.8899 32.8923L16.9114 31.4282Z" fill="#F5841F" stroke="#F5841F" stroke-width="0.980123" stroke-linecap="round" stroke-linejoin="round"/>
<path d="M29.216 45.0388L29.2682 43.3973L28.8283 43.0095H22.1717L21.7491 43.3973L21.7839 45.0388L16.2228 42.4095L18.1652 43.9972L22.1195 46.7343H28.8804L32.8348 43.9972L34.7771 42.4095L29.216 45.0388Z" fill="#C0AC9D" stroke="#C0AC9D" stroke-width="0.980123" stroke-linecap="round" stroke-linejoin="round"/>
<path d="M28.7917 39.4951L27.9448 38.9126H23.055L22.2081 39.4951L21.749 43.3973L22.1716 43.0095H28.8282L29.2682 43.3973L28.7917 39.4951Z" fill="#161616" stroke="#161616" stroke-width="0.980123" stroke-linecap="round" stroke-linejoin="round"/>
<path d="M46.5168 18.894L48.0001 11.6914L45.776 5L28.7919 17.6055L35.325 23.1301L44.557 25.8324L46.5881 23.4483L45.7047 22.8136L47.1167 21.5233L46.0403 20.6764L47.4523 19.6L46.5168 18.894Z" fill="#763E1A" stroke="#763E1A" stroke-width="0.980123" stroke-linecap="round" stroke-linejoin="round"/>
<path d="M3 11.6914L4.5007 18.894L3.54776 19.6L4.95977 20.6764L3.88338 21.5233L5.29539 22.8136L4.41201 23.4483L6.44308 25.8324L15.675 23.1301L22.2082 17.6055L5.22409 5L3 11.6914Z" fill="#763E1A" stroke="#763E1A" stroke-width="0.980123" stroke-linecap="round" stroke-linejoin="round"/>
<path d="M44.5569 25.8324L35.325 23.1301L38.1142 27.3505L33.9478 35.4713L39.4549 35.4H47.647L44.5569 25.8324Z" fill="#F5841F" stroke="#F5841F" stroke-width="0.980123" stroke-linecap="round" stroke-linejoin="round"/>
<path d="M15.675 23.1301L6.44305 25.8324L3.37036 35.4H11.5624L17.0522 35.4713L12.8858 27.3505L15.675 23.1301Z" fill="#F5841F" stroke="#F5841F" stroke-width="0.980123" stroke-linecap="round" stroke-linejoin="round"/>
<path d="M28.1917 27.7922L28.7916 17.6055L31.4574 10.349H19.5422L22.208 17.6055L22.8079 27.7922L23.0375 31.004L23.0549 38.9126H27.9447L27.9621 31.004L28.1917 27.7922Z" fill="#F5841F" stroke="#F5841F" stroke-width="0.980123" stroke-linecap="round" stroke-linejoin="round"/>
</svg>
