<svg xmlns="http://www.w3.org/2000/svg" xmlns:xlink="http://www.w3.org/1999/xlink" width="103" height="103" viewBox="0 0 103 103"><defs><style>.a{fill:#d6a200;}.b{fill:url(#c);}.c{fill:#ebb200;}.d{fill:url(#d);}.e{fill:#fdff03;}.f{fill:#cb8b03;}.g{fill:#eeb902;}.h{filter:url(#a);}</style><filter id="a" x="0" y="0" width="103" height="103" filterUnits="userSpaceOnUse"><feOffset dy="3" input="SourceAlpha"/><feGaussianBlur stdDeviation="1.5" result="b"/><feFlood flood-opacity="0.18"/><feComposite operator="in" in2="b"/><feComposite in="SourceGraphic"/></filter><linearGradient id="c" x1="0.5" x2="0.5" y2="1" gradientUnits="objectBoundingBox"><stop offset="0" stop-color="#fff901"/><stop offset="1" stop-color="#fcd003"/></linearGradient><linearGradient id="d" y1="1" y2="0" xlink:href="#c"/></defs><g transform="translate(4.5 1.5)"><g class="h" transform="matrix(1, 0, 0, 1, -4.5, -1.5)"><circle class="a" cx="47" cy="47" r="47" transform="translate(4.5 1.5)"/></g><circle class="a" cx="47" cy="47" r="47"/><circle class="b" cx="44.911" cy="44.911" r="44.911" transform="translate(1.044 1.044)"/><circle class="c" cx="39.689" cy="39.689" r="39.689" transform="translate(7.311 7.311)"/><circle class="d" cx="37.6" cy="37.6" r="37.6" transform="translate(8.356 8.356)"/><g transform="translate(22.393 20.574)"><path class="e" d="M323.465,68.1l24.313-11.384L372.09,68.1,348.965,87.877Z" transform="translate(-323.465 -56.716)"/><path class="f" d="M347.778,120.324V91.864L323.465,79.342v27.321Z" transform="translate(-323.465 -67.958)"/><path class="g" d="M370.978,91.864l24.313-12.522v27.321l-24.313,13.661Z" transform="translate(-346.666 -67.958)"/></g></g></svg>