<?xml version="1.0" encoding="UTF-8"?>
<svg id="Layer_2" data-name="Layer 2" xmlns="http://www.w3.org/2000/svg" viewBox="0 0 147.43 44">
  <defs>
    <style>
      .cls-1 {
        fill: #fff;
      }
    </style>
  </defs>
  <g id="menu">
    <g id="background">
      <g>
        <path class="cls-1" d="M75.16,6.04h2.21v-.55l-.55-.55h-2.76l-.55,.55v4.41l.55,.55h2.76l.55-.55v-.55h-2.21v-1.11h2.21v-1.1h-2.21v-1.11Z"/>
        <rect class="cls-1" x="73.87" width="3.12" height="3.12"/>
        <path class="cls-1" d="M70.93,4.93v2.21h-1.66v-2.21h-1.1l-.55,.55v4.41l.55,.55h1.1v-2.21h1.66v2.21h1.11l.55-.55V5.49l-.55-.55h-1.11Z"/>
        <path class="cls-1" d="M62.28,4.93l-.55,.55v.55h1.66v3.86l.56,.55h.55l.55-.55v-3.86h1.66v-.55l-.55-.55h-3.86Z"/>
        <path class="cls-1" d="M2.21,12.36L0,14.57v8.83l2.21,2.21H11.04v4.41H6.62v-2.21H0v4.42l2.21,2.21H15.46l2.21-2.21v-8.83l-2.21-2.21H6.62v-4.41h4.41v2.21h6.62v-4.41l-2.21-2.21H2.21Z"/>
        <path class="cls-1" d="M61.82,12.36v22.08h15.46l2.21-2.21V14.57l-2.21-2.21h-15.46Zm6.62,4.41h4.42v13.25h-4.42v-13.25Z"/>
        <path class="cls-1" d="M81.69,12.36v22.08h15.46l2.21-2.21v-6.62l-2.21-2.21,2.21-2.21v-6.63l-2.21-2.21h-15.46Zm6.62,13.24h4.42v4.42h-4.42v-4.42m0-4.42v-4.41h4.42v4.41h-4.42Z"/>
        <path class="cls-1" d="M103.77,12.36l-2.21,2.21v17.66l2.21,2.21h13.24l2.21-2.21V14.56l-2.21-2.21h-13.24Zm4.41,4.42h4.42v13.25h-4.42v-13.25Z"/>
        <rect class="cls-1" x="140.31" y="20.45" width="5.9" height="5.9" transform="translate(25.42 108.15) rotate(-45)"/>
        <rect class="cls-1" x="25.51" y="36.88" width="5.9" height="5.9" transform="translate(-19.83 31.79) rotate(-45)"/>
        <path class="cls-1" d="M132.47,12.36v6.62l-2.21,2.21-2.21-2.21v-6.62h-4.42l-2.21,2.21v6.62l2.21,2.21-2.21,2.21v6.62l2.21,2.21h4.42v-6.62l2.21-2.21,2.21,2.21v6.62h4.42l2.21-2.21v-6.62l-2.21-2.21,2.21-2.21v-6.62l-2.21-2.21h-4.42Z"/>
        <path class="cls-1" d="M52.99,12.36v6.62l-6.62-6.62h-4.41l-2.21,2.21v17.66l2.21,2.21h4.41v-13.25l6.62,6.62v6.62h4.42l2.21-2.21V14.57l-2.21-2.21h-4.42Z"/>
        <path class="cls-1" d="M35.33,12.4h-13.25l-2.21,2.21v17.66l2.21,2.21h4.42v-8.83h4.41v8.84h4.41l2.21-2.21V14.62l-2.21-2.21Zm-6.62,9.64l-2.82-2.82,2.82-2.82,2.82,2.82-2.82,2.82Z"/>
      </g>
    </g>
  </g>
</svg>