<svg width="50" height="50" viewBox="0 0 50 50" fill="none" xmlns="http://www.w3.org/2000/svg">
<circle cx="25" cy="25" r="25" fill="#FC4F4F"/>
<path d="M25.5 14.5C19.9772 14.5 15.5 18.9772 15.5 24.5C15.5 30.0228 19.9772 34.5 25.5 34.5C31.0228 34.5 35.5 30.0228 35.5 24.5C35.5 18.9772 31.0228 14.5 25.5 14.5ZM13 24.5C13 17.5964 18.5964 12 25.5 12C32.4036 12 38 17.5964 38 24.5C38 31.4036 32.4036 37 25.5 37C18.5964 37 13 31.4036 13 24.5Z" fill="white"/>
<path d="M25.5 27C24.8096 27 24.25 26.4404 24.25 25.75L24.25 18.25C24.25 17.5596 24.8096 17 25.5 17C26.1904 17 26.75 17.5596 26.75 18.25L26.75 25.75C26.75 26.4404 26.1904 27 25.5 27Z" fill="white"/>
<path d="M23.625 30.125C23.625 29.0895 24.4645 28.25 25.5 28.25C26.5355 28.25 27.375 29.0895 27.375 30.125C27.375 31.1605 26.5355 32 25.5 32C24.4645 32 23.625 31.1605 23.625 30.125Z" fill="white"/>
</svg>
