<svg width="50" height="50" viewBox="0 0 50 50" fill="none" xmlns="http://www.w3.org/2000/svg">
<circle cx="25" cy="25" r="25" fill="#BF76FC"/>
<path d="M25.5 14.5C19.9772 14.5 15.5 18.9772 15.5 24.5C15.5 30.0228 19.9772 34.5 25.5 34.5C31.0228 34.5 35.5 30.0228 35.5 24.5C35.5 18.9772 31.0228 14.5 25.5 14.5ZM13 24.5C13 17.5964 18.5964 12 25.5 12C32.4036 12 38 17.5964 38 24.5C38 31.4036 32.4036 37 25.5 37C18.5964 37 13 31.4036 13 24.5ZM31.3305 20.4407C31.8464 20.8994 31.8929 21.6895 31.4343 22.2055L24.7676 29.7055C24.5304 29.9723 24.1904 30.125 23.8333 30.125C23.4763 30.125 23.1363 29.9723 22.8991 29.7055L19.5657 25.9555C19.1071 25.4395 19.1536 24.6494 19.6695 24.1907C20.1855 23.7321 20.9756 23.7786 21.4343 24.2945L23.8333 26.9935L29.5657 20.5445C30.0244 20.0286 30.8145 19.9821 31.3305 20.4407Z" fill="white"/>
</svg>
