<svg width="51" height="51" viewBox="0 0 51 51" fill="none" xmlns="http://www.w3.org/2000/svg">
<path d="M12.2124 17.3864C19.551 10.2045 31.449 10.2045 38.7876 17.3864L39.6708 18.2507C40.0377 18.6099 40.0377 19.1921 39.6708 19.5512L36.6495 22.508C36.4661 22.6875 36.1687 22.6875 35.9851 22.508L34.7697 21.3185C29.6503 16.3082 21.3498 16.3082 16.2303 21.3185L14.9287 22.5923C14.7453 22.7719 14.4477 22.7719 14.2643 22.5923L11.243 19.6355C10.8761 19.2764 10.8761 18.6942 11.243 18.3351L12.2124 17.3864ZM45.0359 23.5014L47.7248 26.1329C48.0917 26.492 48.0917 27.0742 47.7248 27.4333L35.6002 39.2993C35.2333 39.6584 34.6384 39.6584 34.2714 39.2993L25.6661 30.8777C25.5744 30.7879 25.4257 30.7879 25.334 30.8777L16.7288 39.2993C16.362 39.6584 15.767 39.6584 15.4002 39.2993L3.2752 27.4332C2.90827 27.074 2.90827 26.4919 3.2752 26.1327L5.96413 23.5013C6.33105 23.1421 6.92596 23.1421 7.29289 23.5013L15.8983 31.9229C15.9901 32.0127 16.1387 32.0127 16.2304 31.9229L24.8355 23.5013C25.2024 23.1421 25.7973 23.1421 26.1642 23.5012L34.7696 31.9229C34.8614 32.0127 35.0101 32.0127 35.1018 31.9229L43.7071 23.5014C44.074 23.1422 44.6689 23.1422 45.0359 23.5014V23.5014Z" fill="#3396FF"/>
</svg>
